<svg width="61" height="60" viewBox="0 0 61 60" fill="none" xmlns="http://www.w3.org/2000/svg">
<ellipse cx="29.3735" cy="29.2997" rx="28.4531" ry="29.2997" fill="#FA5533"/>
<ellipse cx="29.5976" cy="29.0691" rx="26.8848" ry="27.6848" fill="white"/>
<path d="M38.9553 26.762C38.9553 30.5103 35.5239 33.6446 31.1658 33.6446C26.8078 33.6446 23.3763 30.5103 23.3763 26.762C23.3763 23.0137 26.8078 19.8794 31.1658 19.8794C35.5239 19.8794 38.9553 23.0137 38.9553 26.762Z" fill="#FC512C" stroke="#ADAAAB"/>
<ellipse cx="27.8052" cy="26.7619" rx="1.34424" ry="1.38424" fill="white"/>
<ellipse cx="31.3898" cy="26.7619" rx="1.34424" ry="1.38424" fill="white"/>
<ellipse cx="34.9745" cy="26.7619" rx="1.34424" ry="1.38424" fill="white"/>
<path d="M23.3335 39.7006L23.224 39.6429H23.1003C18.7422 39.6429 15.3108 36.5086 15.3108 32.7603C15.3108 29.012 18.7422 25.8777 23.1003 25.8777C27.4424 25.8777 30.8647 28.9892 30.8896 32.7192C30.7702 33.4385 30.7199 34.3036 30.6692 35.1756C30.649 35.5234 30.6288 35.8724 30.604 36.2135C30.513 37.4674 30.3618 38.6463 29.978 39.5423C29.6072 40.4078 29.0448 40.9609 28.1082 41.0895C27.1112 41.2263 25.6028 40.8976 23.3335 39.7006Z" fill="#2E447D" stroke="#ADAAAB"/>
<ellipse cx="19.7397" cy="32.7603" rx="1.34424" ry="1.38424" fill="white"/>
<ellipse cx="23.3243" cy="32.7603" rx="1.34424" ry="1.38424" fill="white"/>
<ellipse cx="26.9091" cy="32.7603" rx="1.34424" ry="1.38424" fill="white"/>
<path d="M16.1727 11.8853C16.1727 12.6123 15.9288 13.1722 15.441 13.5652C14.9564 13.9549 14.2615 14.1497 13.3564 14.1497H12.5284V16.9741H11.71V9.79285H13.5346C15.2934 9.79285 16.1727 10.4903 16.1727 11.8853ZM12.5284 13.4326H13.265C13.9903 13.4326 14.5151 13.3131 14.8392 13.074C15.1634 12.835 15.3254 12.4518 15.3254 11.9246C15.3254 11.4498 15.173 11.0961 14.8681 10.8636C14.5632 10.6311 14.0882 10.5149 13.4431 10.5149H12.5284V13.4326Z" fill="#2E447D"/>
<path d="M22.075 16.9741L21.1988 14.69H18.3777L17.5111 16.9741H16.6831L19.4657 9.76338H20.1541L22.9223 16.9741H22.075ZM20.9436 13.9385L20.1252 11.7134C20.0193 11.4318 19.9102 11.0863 19.7979 10.677C19.7273 10.9914 19.6262 11.3368 19.4946 11.7134L18.6665 13.9385H20.9436Z" fill="#2E447D"/>
<path d="M26.0564 16.9741H25.2379V10.5345H23.009V9.79285H28.2853V10.5345H26.0564V16.9741Z" fill="#2E447D"/>
<path d="M30.6299 10.4363C30.0778 10.4363 29.5419 10.5607 29.0219 10.8096L28.6753 10.1023C29.2273 9.82723 29.8821 9.6897 30.6395 9.6897C31.336 9.6897 31.9345 9.83378 32.4352 10.1219C32.9391 10.4101 33.321 10.8211 33.581 11.3548C33.841 11.8886 33.9709 12.5173 33.9709 13.241C33.9709 14.4723 33.6789 15.4186 33.0948 16.0801C32.5106 16.7416 31.6697 17.0723 30.5721 17.0723C29.8435 17.0723 29.2289 16.979 28.7283 16.7923V16.0605C28.9946 16.1292 29.2658 16.1914 29.5419 16.2471C29.8179 16.3028 30.1147 16.3306 30.4325 16.3306C31.3023 16.3306 31.9586 16.0948 32.4015 15.6233C32.8444 15.1485 33.0787 14.4657 33.1044 13.575H29.643V12.8284H33.0948C33.0241 12.0785 32.7706 11.4924 32.3341 11.0699C31.9008 10.6475 31.3327 10.4363 30.6299 10.4363Z" fill="#2E447D"/>
<path d="M40.812 16.9741H39.9935V10.5345H36.3781V16.9741H35.5596V9.79285H40.812V16.9741Z" fill="#2E447D"/>
<path d="M48.0044 16.9741H47.186V10.5345H43.5705V16.9741H42.7521V9.79285H48.0044V16.9741Z" fill="#2E447D"/>
<path d="M5.48444 36.5178L5.377 36.1173L8.45809 35.241L7.98347 33.4714L4.90238 34.3477L4.79494 33.9472L8.2309 32.9699L8.9204 35.5406L5.48444 36.5178Z" fill="black"/>
<path d="M6.16819 38.3888C6.02406 38.0301 6.02187 37.7054 6.16163 37.4146C6.3035 37.1247 6.57551 36.8941 6.97768 36.7227C7.39035 36.5469 7.7492 36.5105 8.05424 36.6135C8.35987 36.718 8.58688 36.9549 8.73525 37.3241C8.78309 37.4432 8.81817 37.5677 8.84051 37.6976C8.86284 37.8275 8.87037 37.9338 8.86311 38.0163L8.4994 38.0362C8.4991 37.9393 8.48978 37.8373 8.47143 37.7304C8.45457 37.6229 8.431 37.5314 8.40073 37.4561C8.19846 36.9527 7.77769 36.8372 7.13842 37.1096C6.8353 37.2388 6.62723 37.3989 6.51421 37.5901C6.4018 37.7827 6.39405 37.9996 6.49094 38.2407C6.57391 38.4472 6.70326 38.6401 6.879 38.8194L6.54811 38.9603C6.39596 38.831 6.26932 38.6405 6.16819 38.3888Z" fill="black"/>
<path d="M9.39067 38.8992L7.91866 39.7548L7.525 39.9639L7.40077 40.0276L10.0726 40.1432L10.3147 40.5849L7.99335 41.9342L7.81206 41.6034L9.23111 40.7786L9.51419 40.6225L9.79538 40.4731L7.129 40.3572L6.88689 39.9155L9.20821 38.5663L9.39067 38.8992Z" fill="black"/>
<path d="M10.2277 42.7765L10.7244 41.2272L10.994 41.5991L10.5897 42.7956L11.8172 42.7348L12.0839 43.1028L10.5002 43.1525L9.98139 44.7801L9.7132 44.4101L10.1386 43.1423L8.83303 43.1957L8.56484 42.8257L10.2277 42.7765Z" fill="black"/>
<path d="M12.9488 46.0336C12.6364 46.3412 12.3178 46.5016 11.993 46.5147C11.6694 46.5267 11.3764 46.3915 11.1142 46.1091C10.9522 45.9347 10.8487 45.7403 10.8035 45.5258C10.7583 45.3113 10.7767 45.0932 10.8588 44.8716C10.9409 44.6499 11.0828 44.4398 11.2844 44.2412C11.5969 43.9336 11.9137 43.7737 12.2351 43.7617C12.5576 43.7485 12.85 43.8831 13.1122 44.1655C13.3657 44.4385 13.4776 44.7428 13.448 45.0786C13.4195 45.4156 13.2531 45.734 12.9488 46.0336ZM11.5687 44.5474C11.3239 44.7884 11.1837 45.0219 11.148 45.2479C11.1123 45.4738 11.1843 45.6835 11.3639 45.8769C11.5435 46.0703 11.7431 46.1543 11.9627 46.1289C12.1846 46.1034 12.4185 45.9696 12.6645 45.7274C12.9082 45.4875 13.0461 45.2551 13.0784 45.0303C13.1129 44.8055 13.0392 44.5952 12.8574 44.3994C12.6778 44.206 12.4799 44.1215 12.2637 44.1458C12.0475 44.1702 11.8159 44.304 11.5687 44.5474Z" fill="black"/>
<path d="M14.4919 49.1429L14.1794 48.8808L15.6324 47.0438L15.0204 46.5306C14.6255 46.9595 14.2921 47.2831 14.0204 47.5015C13.7486 47.7199 13.5158 47.8513 13.3218 47.8957C13.1291 47.9412 12.9595 47.9025 12.8132 47.7798C12.7462 47.7236 12.699 47.6712 12.6715 47.6225L12.8588 47.3857C12.88 47.4163 12.908 47.4461 12.9427 47.4752C13.0853 47.5949 13.3222 47.5341 13.6532 47.2928C13.9843 47.0516 14.4228 46.6315 14.9688 46.0325L16.1612 47.0325L14.4919 49.1429Z" fill="black"/>
<path d="M17.7613 49.6921C17.5332 50.0668 17.2631 50.3005 16.951 50.3932C16.6398 50.4844 16.3224 50.4256 15.9988 50.2167C15.7989 50.0877 15.6509 49.9249 15.5546 49.7284C15.4583 49.5319 15.4229 49.3162 15.4484 49.0815C15.4739 48.8467 15.5603 48.6083 15.7075 48.3665C15.9356 47.9918 16.2042 47.759 16.5132 47.6683C16.8231 47.5762 17.1398 47.6346 17.4634 47.8434C17.7761 48.0453 17.9591 48.3124 18.0124 48.6448C18.0671 48.9781 17.9834 49.3272 17.7613 49.6921ZM16.0583 48.5929C15.8796 48.8865 15.8005 49.1471 15.8211 49.3746C15.8417 49.6021 15.9628 49.7874 16.1844 49.9305C16.406 50.0735 16.6203 50.1057 16.8273 50.027C17.0365 49.9478 17.2309 49.7607 17.4105 49.4657C17.5884 49.1735 17.6655 48.9146 17.6418 48.689C17.6204 48.4629 17.4975 48.2774 17.2732 48.1326C17.0515 47.9895 16.8388 47.9564 16.6349 48.0331C16.4309 48.1099 16.2388 48.2965 16.0583 48.5929Z" fill="black"/>
<path d="M20.5924 50.001L19.513 49.478L18.5398 51.6079L18.1771 51.4321L19.2952 48.9852L20.7372 49.6839L20.5924 50.001Z" fill="black"/>
<path d="M21.8487 50.1281L21.3341 51.7535L21.1833 52.1738L21.1341 52.3048L23.1913 50.5788L23.668 50.7388L22.8566 53.3021L22.4996 53.1823L22.9957 51.6153L23.1003 51.3089L23.2081 51.0087L21.1547 52.7308L20.678 52.5708L21.4894 50.0075L21.8487 50.1281Z" fill="black"/>
<path d="M24.9145 51.0313L24.7496 51.9976C24.6969 52.3068 24.8452 52.493 25.1945 52.5562C25.3397 52.5825 25.4823 52.585 25.6224 52.5639C25.7625 52.5428 25.9255 52.4934 26.1114 52.4158L26.3047 51.2828L26.702 51.3547L26.2502 54.0023L25.853 53.9305L26.0574 52.7323C25.8701 52.8179 25.7006 52.8719 25.5488 52.8942C25.3988 52.9153 25.2337 52.9095 25.0535 52.8769C24.7918 52.8295 24.5987 52.7232 24.4739 52.5578C24.3492 52.3925 24.3071 52.1914 24.3475 51.9547L24.5173 50.9594L24.9145 51.0313Z" fill="black"/>
<path d="M28.7462 54.242C28.3523 54.222 28.0468 54.0855 27.8299 53.8326C27.6145 53.5798 27.5171 53.239 27.5377 52.8103C27.5585 52.3784 27.6803 52.0406 27.9032 51.797C28.1278 51.5536 28.4184 51.4409 28.775 51.4591C29.1089 51.4761 29.3678 51.6004 29.5517 51.832C29.7356 52.0619 29.8189 52.3578 29.8015 52.7197L29.7892 52.9765L27.9535 52.883C27.9465 53.198 28.0136 53.4408 28.1549 53.6114C28.2978 53.7821 28.5055 53.8744 28.7778 53.8882C29.0647 53.9028 29.3512 53.857 29.6375 53.7506L29.6201 54.1125C29.4745 54.1672 29.337 54.2043 29.2077 54.2239C29.0799 54.2451 28.9261 54.2512 28.7462 54.242ZM28.7538 51.7987C28.5398 51.7878 28.3655 51.8492 28.2307 51.9828C28.0975 52.1166 28.0136 52.3068 27.979 52.5534L29.3722 52.6243C29.3845 52.3684 29.3372 52.1699 29.2302 52.0288C29.1233 51.8861 28.9645 51.8094 28.7538 51.7987Z" fill="black"/>
<path d="M31.376 54.1889C30.99 54.2118 30.684 54.1107 30.4583 53.8857C30.234 53.6589 30.1097 53.3274 30.0853 52.8912C30.0603 52.4437 30.148 52.0914 30.3484 51.8346C30.5505 51.5777 30.8503 51.4374 31.2477 51.4138C31.3758 51.4062 31.5047 51.4125 31.6344 51.4326C31.7641 51.4526 31.8665 51.4792 31.9416 51.5123L31.8368 51.8639C31.7455 51.8334 31.6466 51.8099 31.5399 51.7933C31.4331 51.7752 31.3391 51.7685 31.258 51.7733C30.7162 51.8054 30.4647 52.1682 30.5035 52.8615C30.5219 53.1903 30.6017 53.4387 30.7429 53.6067C30.8858 53.7746 31.087 53.8508 31.3465 53.8354C31.5687 53.8223 31.7939 53.7607 32.0221 53.6509L32.0422 54.0097C31.869 54.1131 31.6469 54.1728 31.376 54.1889Z" fill="black"/>
<path d="M34.0965 51.0778L34.5346 51.0044L33.598 52.4715L35.0466 53.6327L34.5797 53.711L33.1646 52.5739L33.3764 53.9128L32.9769 53.9798L32.5587 51.3357L32.9582 51.2687L33.1615 52.5546L34.0965 51.0778Z" fill="black"/>
<path d="M37.2904 52.999L37.1142 52.6535L37.0954 52.6588C37.0103 52.8572 36.9114 53.0037 36.7985 53.0983C36.6867 53.191 36.5353 53.2645 36.3441 53.3188C36.0888 53.3915 35.8705 53.3825 35.6894 53.292C35.5099 53.2011 35.3875 53.0339 35.3221 52.7904C35.1823 52.2689 35.5249 51.8772 36.3502 51.6155L36.7835 51.477L36.7405 51.3168C36.6862 51.1141 36.6023 50.9774 36.4888 50.9065C36.3765 50.8336 36.2248 50.8244 36.0337 50.8788C35.819 50.9398 35.5939 51.0749 35.3582 51.2839L35.1581 51.0187C35.2665 50.9135 35.3906 50.8199 35.5305 50.7379C35.6719 50.6554 35.8186 50.5925 35.9706 50.5493C36.2777 50.4619 36.5232 50.4656 36.7071 50.5604C36.8926 50.6547 37.0258 50.8527 37.1067 51.1543L37.5794 52.9168L37.2904 52.999ZM36.3351 52.974C36.578 52.9049 36.7504 52.784 36.8525 52.6113C36.9561 52.4381 36.9757 52.2313 36.9112 51.991L36.8487 51.7577L36.463 51.8852C36.1557 51.9844 35.9447 52.0968 35.83 52.2224C35.7164 52.346 35.6839 52.4981 35.7323 52.6788C35.7703 52.8202 35.8414 52.9157 35.9458 52.9655C36.0518 53.0148 36.1816 53.0176 36.3351 52.974Z" fill="black"/>
<path d="M38.4025 52.6046L37.9631 52.7838L38.2717 51.4398C38.0636 51.4756 37.8849 51.4537 37.7355 51.3743C37.5871 51.2928 37.4774 51.1595 37.4062 50.9745C37.3188 50.7471 37.3262 50.5371 37.4286 50.3445C37.531 50.1519 37.7189 49.9999 37.9922 49.8884L39.0977 49.4376L40.0562 51.9303L39.6802 52.0836L39.2971 51.0875L38.6696 51.3433L38.4025 52.6046ZM37.7749 50.8294C37.8857 51.1175 38.1495 51.1766 38.5663 51.0066L39.1712 50.76L38.8476 49.9185L38.1657 50.1965C37.8003 50.3455 37.67 50.5565 37.7749 50.8294Z" fill="black"/>
<path d="M42.7065 50.5039L42.367 50.7281L40.9578 48.4654L42.8394 47.2227L44.2486 49.4854L43.905 49.7124L42.681 47.7469L41.4825 48.5384L42.7065 50.5039Z" fill="black"/>
<path d="M46.2124 46.1123C46.491 46.4452 46.6263 46.7787 46.6182 47.1128C46.6091 47.4457 46.4589 47.7414 46.1678 47.9998C45.988 48.1594 45.7925 48.2583 45.5813 48.2964C45.3702 48.3345 45.1596 48.3071 44.9496 48.2142C44.7396 48.1214 44.5447 47.9675 44.3648 47.7526C44.0861 47.4198 43.9513 47.0881 43.9603 46.7575C43.9682 46.4257 44.1177 46.1306 44.4088 45.8722C44.6901 45.6224 44.9929 45.5192 45.3171 45.5626C45.6426 45.605 45.941 45.7882 46.2124 46.1123ZM44.6804 47.4725C44.8987 47.7333 45.1165 47.8864 45.3336 47.9318C45.5507 47.9772 45.759 47.9114 45.9584 47.7344C46.1577 47.5573 46.2521 47.3556 46.2415 47.129C46.2311 46.9 46.1162 46.6546 45.8968 46.3925C45.6795 46.1329 45.4627 45.9823 45.2464 45.9404C45.0303 45.8963 44.8214 45.9638 44.6196 46.143C44.4202 46.32 44.3254 46.52 44.3351 46.743C44.3449 46.966 44.4599 47.2092 44.6804 47.4725Z" fill="black"/>
<path d="M48.6152 44.8816L48.4962 44.6728L48.351 44.4009L47.5146 42.6723L47.849 42.2768L49.8269 44.0498L49.5939 44.3254L47.9577 42.8587L48.0309 42.9902L48.2156 43.3469L49.0217 45.0022L48.8014 45.2628L47.0946 44.6653C46.8771 44.5868 46.7126 44.5195 46.601 44.4635L48.2372 45.9302L48.0026 46.2077L46.0248 44.4346L46.3465 44.054L48.0579 44.6424C48.2359 44.7075 48.4217 44.7872 48.6152 44.8816Z" fill="black"/>
<path d="M50.4394 40.6684C50.8003 40.909 51.0236 41.1906 51.1093 41.5132C51.1937 41.8349 51.1322 42.1607 50.9249 42.4905C50.7969 42.6942 50.6367 42.8441 50.4445 42.9401C50.2523 43.0362 50.0423 43.0693 49.8146 43.0394C49.5869 43.0096 49.3565 42.917 49.1236 42.7617C48.7627 42.5212 48.5403 42.2412 48.4564 41.9218C48.3711 41.6014 48.4322 41.2764 48.6395 40.9465C48.8398 40.6278 49.1018 40.4435 49.4254 40.3938C49.7499 40.3426 50.0879 40.4342 50.4394 40.6684ZM49.3483 42.4042C49.6311 42.5927 49.8832 42.6781 50.1044 42.6604C50.3257 42.6427 50.5074 42.5209 50.6494 42.295C50.7914 42.0691 50.8255 41.8491 50.7519 41.6348C50.6779 41.4183 50.4988 41.2154 50.2146 41.026C49.9332 40.8384 49.6827 40.755 49.4633 40.7759C49.2433 40.7945 49.0615 40.9181 48.9178 41.1468C48.7758 41.3726 48.7407 41.5911 48.8124 41.8022C48.8842 42.0132 49.0629 42.2139 49.3483 42.4042Z" fill="black"/>
<path d="M52.7177 38.2478L53.19 37.1525L51.09 36.1923L51.2514 35.8181L53.3513 36.7784L53.5039 36.4245L54.6522 36.9496L54.4889 37.3282L53.6564 36.9475L52.2394 40.2336L49.8237 39.129L49.985 38.7548L52.085 39.7151L52.5564 38.622L50.4564 37.6617L50.6177 37.2876L52.7177 38.2478Z" fill="black"/>
<path d="M52.5173 35.2236L52.7388 34.4248C52.9224 33.763 53.2542 33.5028 53.7344 33.644C53.9862 33.718 54.1549 33.8614 54.2404 34.074C54.3265 34.285 54.3234 34.5568 54.2312 34.8892L53.9074 36.0567L51.3525 35.3054L51.4613 34.9131L52.5173 35.2236ZM52.8506 35.3216L53.6922 35.5691L53.9019 34.8128C53.9596 34.6049 53.968 34.4352 53.9271 34.3039C53.8862 34.1726 53.7935 34.0857 53.6489 34.0432C53.5075 34.0016 53.39 34.0224 53.2963 34.1056C53.2015 34.1868 53.1218 34.344 53.0571 34.5772L52.8506 35.3216Z" fill="black"/>
</svg>
